<?xml version="1.0" encoding="UTF-8"?>
<svg id="Layer_2" data-name="Layer 2" xmlns="http://www.w3.org/2000/svg" viewBox="0 0 66.56 59.37">
  <g id="Mobile">
    <g id="Contact">
      <path d="M0,2.39v-.91C.38.6,1.04,0,2.08,0h7.28c2.12.04,3.97,1.39,4.53,3.46l2.33,8.61,46.67.21c2.31.01,4.08,2.44,3.58,4.6l-4.77,20.71c-.52,2.25-2.46,3.77-4.79,3.77H19.26c-1.36-.01-2.22,1.09-2.17,2.27.05,1.24.98,2.09,2.31,2.09h38.94c1.06,0,1.8.7,1.97,1.6.18.96-.36,1.82-1.28,2.21,1.42,2.93.59,6.35-1.85,8.32-2.48,2.01-6.01,2.01-8.5.05-2.46-1.94-3.32-5.28-1.97-8.28h-12.28c1.35,3.03.46,6.32-1.93,8.24s-5.98,1.99-8.45.06c-2.47-1.93-3.35-5.24-2.01-8.28l-3.21-.04c-3.27-.24-5.75-2.99-5.69-6.19.06-3.21,2.58-5.8,5.86-5.98L10.14,4.51c-.09-.34-.46-.6-.77-.6H2.08c-1.05,0-1.72-.61-2.08-1.52ZM27.24,24.82l-1.17-8.81-8.79-.03,2.39,8.87,7.57-.02ZM38.62,24.84v-8.78s-8.62-.03-8.62-.03l1.18,8.81h7.45ZM49.96,24.84l1.15-8.73-8.58-.04v8.77s7.43,0,7.43,0ZM60.66,24.83l1.99-8.67-7.61-.04-1.15,8.7h6.76ZM28.92,37.45l-1.16-8.7h-7.04s2.12,7.88,2.12,7.88c.15.49.57.84,1.09.84h5ZM38.63,37.45l-.02-8.71h-6.92s1.16,8.72,1.16,8.72h5.77ZM48.3,37.44l1.14-8.7h-6.91s0,8.72,0,8.72l5.76-.02ZM57.94,36.6l1.81-7.86h-6.36s-1.15,8.71-1.15,8.71h4.57c.54.01,1-.24,1.13-.84ZM27.94,49.65c-1.73.19-2.83,1.74-2.58,3.35s1.64,2.66,3.27,2.45c1.53-.2,2.73-1.61,2.51-3.27-.19-1.46-1.52-2.71-3.2-2.52ZM52.51,49.66c-1.7.24-2.74,1.78-2.49,3.36s1.71,2.67,3.32,2.42,2.68-1.66,2.45-3.31c-.21-1.48-1.59-2.71-3.29-2.47Z"/>
    </g>
  </g>
</svg>