<svg xmlns="http://www.w3.org/2000/svg" xmlns:xlink="http://www.w3.org/1999/xlink" id="Layer_1" data-name="Layer 1" viewBox="0 0 310.9 355.03" width="310.9" height="355.03"><metadata><rdf:RDF xmlns:rdf="http://www.w3.org/1999/02/22-rdf-syntax-ns#" xmlns:dc="http://purl.org/dc/elements/1.1/"><rdf:Description><dc:creator>RealFaviconGenerator</dc:creator><dc:source>https://realfavicongenerator.net</dc:source></rdf:Description></rdf:RDF></metadata><defs>
    <style>
      .cls-1 {
        fill: url(#linear-gradient);
        stroke: #d88b25;
        stroke-linecap: round;
        stroke-linejoin: round;
        stroke-width: 4px;
      }
    </style>
    <linearGradient id="linear-gradient" x1="51.12" y1="87.28" x2="338.06" y2="325.1" gradientUnits="userSpaceOnUse">
      <stop offset="0" stop-color="#d88b25"></stop>
      <stop offset=".12" stop-color="#dc9629"></stop>
      <stop offset=".34" stop-color="#e9b636"></stop>
      <stop offset=".42" stop-color="#efc43c"></stop>
      <stop offset=".48" stop-color="#e9b736"></stop>
      <stop offset=".58" stop-color="#dc9629"></stop>
      <stop offset=".61" stop-color="#d88b25"></stop>
      <stop offset=".63" stop-color="#cc8222"></stop>
      <stop offset=".75" stop-color="#9f6217"></stop>
      <stop offset=".86" stop-color="#7e4b10"></stop>
      <stop offset=".94" stop-color="#6a3d0b"></stop>
      <stop offset="1" stop-color="#63380a"></stop>
    </linearGradient>
  </defs><path class="cls-1" d="M75.24,2c16.98,7.26,27.37,22.52,28.03,41.83h82.19c.57-19.17,11.22-34.94,28.26-41.83h5.48c3.58,2.17,7.41,4.74,7.41,9.67l.03,73.18-10.18.11c-28.44.3-51.5,22.92-51.52,51.45l-.03,42.33-15.24,7.65c-2.97,1.49-6.63,1.97-9.71.43l-16.15-8.08-.05-42.32c-.03-29.04-23.78-51.27-52.66-51.47l-9.02-.06.03-73.24c0-5.01,3.89-7.63,7.63-9.64h5.48ZM38.08,298.69c43.87,50.76,112.59,68.06,174.56,42.93,48.55-19.93,83.84-63.29,93.56-114.77,10.91-57.74-11.71-116.49-58.9-151.83l-.21,36.08c-.17,29.37-16.48,57.43-42.74,70.73l-45.48,23.03c-4.65,2.14-9.24,3.37-14.38,3.52l-38.83.15-67.57,90.17ZM80.05,208.41l-67.16-.08c-6.33,0-11.14,4.64-10.88,10.98,3.21,22.14,10.7,43.1,23.25,62.16l54.79-73.07ZM72.56,105.52l-10.4.05c-1.08,27.83,15.1,52.81,41.07,62.53v-31.47c0-17.43-13.76-30.85-30.67-31.1ZM226.58,105.61l-10.8-.03c-17.29-.05-30.37,14.37-30.32,31.48l.09,31.07c26.11-9.88,42.05-34.85,41.02-62.51Z"></path></svg>