<?xml version="1.0" encoding="UTF-8"?>
<svg id="Layer_2" data-name="Layer 2" xmlns="http://www.w3.org/2000/svg" viewBox="0 0 66.37 75.45">
  <defs>
    <style>
      .cls-1 {
        fill: #d88b25;
      }
    </style>
  </defs>
  <g id="Mobile">
    <g id="Contact">
      <path class="cls-1" d="M65.39,57.11l-30.93,17.89c-.76.46-1.73.61-2.56.25-9.46-5.94-19.84-10.91-29.24-16.87-1.1-.7-2.64-1.18-2.66-2.75L.15,18.77l1.18-1.1C10.06,12.93,18.47,7.6,27.14,2.78c1.95-1.08,4.85-3.36,7.01-2.64l30.86,17.82,1.05,2.36c-.79,11.19,1.01,23.73,0,34.76-.07.78-.22,1.39-.67,2.03ZM58.93,19.63l-25.83-14.77-10.31,5.8,24.11,16.04,11.86-6.48.18-.59ZM42.7,29.58L18.59,13.4l-11.75,6.22.37.63,25.73,14.67,9.77-5.35ZM30.75,69.15v-30.03L4.56,23.89v30.03l5.79,3.61,20.4,11.62ZM35.3,69.15l26.19-15.23v-30.03l-12.19,6.88-.17,11.64c-.65,1.4-2.09,2.12-3.44,1.13-.23-.17-.99-1.11-.99-1.29v-8.68l-9.39,5.12v30.46Z"/>
    </g>
  </g>
</svg>