<?xml version="1.0" encoding="UTF-8"?>
<svg id="Layer_2" data-name="Layer 2" xmlns="http://www.w3.org/2000/svg" viewBox="0 0 51.27 45.6">
  <defs>
    <style>
      .cls-1 {
        fill: #c74e51;
      }
    </style>
  </defs>
  <g id="Mobile">
    <g id="Contact">
      <g>
        <path class="cls-1" d="M37.75,3.03c-4.63-.33-8.14,2.28-10.44,6.06-.39.64-1.01,1-1.71.99-.68-.01-1.26-.38-1.64-.99-2.31-3.78-5.81-6.39-10.44-6.06-3.85.28-7.18,2.5-8.97,5.92-2.3,4.42-1.99,9.67.62,13.91,1.19,1.93,2.57,3.61,4.15,5.26,1.88,1.93,3.79,3.7,5.84,5.47l10.46,9.01,10.47-9.01c2.05-1.77,3.96-3.54,5.84-5.47,1.56-1.63,2.92-3.27,4.13-5.23,2.64-4.28,2.93-9.52.64-13.94-1.78-3.43-5.12-5.65-8.96-5.92Z"/>
        <path d="M47.98,5.4C45.43,2.09,41.64.16,37.46,0c-4.93-.18-8.93,2.23-11.82,6.16C22.76,2.25,18.73-.19,13.82.02,9.63.15,5.85,2.11,3.29,5.39,1.28,7.97.32,11.03,0,14.21v2.3c.52,5.59,3.42,9.84,7.3,13.83,1.91,1.97,3.87,3.77,5.96,5.57l10.38,8.93c1.17,1.01,2.82,1.01,4,0l10.49-9.03c2.11-1.81,4.08-3.63,6-5.63,4.27-4.45,7.56-9.51,7.11-15.93-.23-3.24-1.27-6.3-3.25-8.86ZM46.08,22.89c-1.21,1.96-2.57,3.6-4.13,5.23-1.88,1.93-3.79,3.7-5.84,5.47l-10.47,9.01-10.46-9.01c-2.05-1.77-3.96-3.54-5.84-5.47-1.58-1.65-2.96-3.33-4.15-5.26-2.61-4.24-2.92-9.49-.62-13.91,1.78-3.43,5.12-5.65,8.97-5.92,4.63-.33,8.13,2.28,10.44,6.06.37.61.96.98,1.64.99.71.01,1.33-.35,1.71-.99,2.3-3.78,5.81-6.39,10.44-6.06,3.85.28,7.18,2.5,8.96,5.92,2.3,4.42,2.01,9.66-.64,13.94Z"/>
      </g>
    </g>
  </g>
</svg>