<?xml version="1.0" encoding="UTF-8"?>
<svg id="Layer_2" data-name="Layer 2" xmlns="http://www.w3.org/2000/svg" viewBox="0 0 77.7 88.5">
  <defs>
    <style>
      .cls-1 {
        fill: #d88b25;
      }
    </style>
  </defs>
  <g id="Mobile">
    <g id="Contact">
      <g>
        <path class="cls-1" d="M38.68,84.5c-9.54,0-18.72-4.05-25.43-11.16l14.64-19.54,8.33-.03c1.48-.04,2.87-.38,4.28-1.03l10.99-5.56c6.85-3.47,11.31-10.83,11.36-18.76l.03-4.4c8.56,8.13,12.44,19.97,10.2,31.81-2.22,11.78-10.17,21.53-21.26,26.08-4.23,1.72-8.66,2.59-13.14,2.59ZM7.77,65.73c-1.89-3.5-3.16-7.36-3.77-11.5,0-.13.05-.23.12-.31.11-.11.28-.17.5-.17h12.13s-8.97,11.98-8.97,11.98ZM36.13,44.81s-.08,0-.1-.02l-2.77-1.39v-8.93c-.02-7.99-6.45-14.3-14.64-14.36h-.18s0-15.6,0-15.6c.01-.04.08-.13.37-.32h.36c3.16,1.5,5.03,4.43,5.16,8.11l.07,1.93h23.61l.06-1.94c.11-3.68,2.04-6.68,5.2-8.1h.32c.21.14.33.25.37.32v15.59s-.46,0-.46,0c-8.04.08-14.34,6.39-14.35,14.35v8.93s-2.56,1.28-2.56,1.28c-.15.07-.31.12-.44.12ZM48.06,34.63c0-1.53.59-3,1.63-4.05.97-.97,2.26-1.51,3.63-1.51h.56c-.39,4.05-2.51,7.58-5.81,9.77v-4.22ZM24.31,38.85c-3.31-2.18-5.43-5.72-5.81-9.78h.46c2.99.04,5.36,2.45,5.36,5.47v4.31Z"/>
        <path d="M51.94,7.53v10.68c-8.29.85-14.8,7.85-14.81,16.27v7.7s-.94.47-.94.47l-.94-.47v-7.69c-.02-8.51-6.39-15.34-14.82-16.25V7.54c1.17,1.23,1.83,2.89,1.89,4.85l.13,3.86h27.49l.12-3.88c.06-1.95.72-3.61,1.88-4.84M64.84,29.15c5.7,7.34,8.07,16.82,6.28,26.31-2.1,11.11-9.6,20.31-20.04,24.6-4,1.62-8.17,2.45-12.4,2.45-8.44,0-16.59-3.37-22.79-9.34l13.01-17.36,7.33-.03h.05s.05,0,.05,0c1.71-.05,3.35-.45,5.01-1.21l.07-.03.07-.03,10.92-5.53c7.31-3.7,12.13-11.42,12.44-19.81M51.16,31.94c-.28.73-.64,1.42-1.06,2.07.12-.77.47-1.48,1-2.01.02-.02.04-.04.06-.06M21.22,31.97c.56.52.94,1.23,1.05,2.05-.42-.64-.77-1.33-1.05-2.05M6.3,55.75h6.45s-4.59,6.13-4.59,6.13c-.81-1.95-1.43-4-1.86-6.13M54.16,2.2h-1.32c-4.09,1.65-6.65,5.44-6.79,10.05h-19.74c-.16-4.64-2.65-8.3-6.73-10.05h0s-1.32,0-1.32,0c-.9.48-1.83,1.11-1.83,2.31v17.59s2.16.01,2.16.01c6.94.05,12.64,5.39,12.65,12.36v10.16s3.89,1.94,3.89,1.94c.32.16.66.23,1,.23.46,0,.92-.13,1.33-.33l3.66-1.84v-10.17c.01-6.85,5.55-12.28,12.38-12.36l2.44-.03V4.52c0-1.18-.93-1.8-1.79-2.32h0ZM60.91,19.74l-.05,8.66c-.04,7.05-3.96,13.79-10.26,16.99l-10.92,5.53c-1.12.51-2.22.81-3.45.85l-9.32.04-16.23,21.65h0c7.31,8.46,17.5,13.05,28.02,13.05,4.64,0,9.35-.89,13.9-2.74,11.66-4.79,20.13-15.2,22.47-27.56,2.62-13.87-2.81-27.97-14.14-36.46h0ZM18.94,27.06h-2.5c-.26,6.7,3.63,12.69,9.86,15.03v-7.56c0-4.19-3.3-7.41-7.37-7.47h0ZM53.32,27.08c-4.14,0-7.27,3.46-7.26,7.56l.02,7.46c6.27-2.37,10.1-8.37,9.85-15.01h0s-2.59,0-2.59,0h-.02ZM4.62,51.75c-1.52,0-2.68,1.11-2.61,2.64.77,5.32,2.57,10.35,5.58,14.93l13.16-17.54-16.13-.02h0ZM20.74,51.77h0s0,0,0,0h0Z"/>
      </g>
    </g>
  </g>
</svg>