<?xml version="1.0" encoding="UTF-8"?>
<svg id="Layer_2" data-name="Layer 2" xmlns="http://www.w3.org/2000/svg" viewBox="0 0 9.96 19.73">
  <defs>
    <style>
      .cls-1 {
        fill: #45151b;
      }
    </style>
  </defs>
  <g id="Mobile">
    <g id="Contact">
      <path class="cls-1" d="M5.36,19.73h-.77C2.01,19.48,0,17.37,0,14.71V3.55C.01,1.39,1.99-.25,4.09.03c1.83.24,3.17,1.79,3.17,3.63v9.66c0,1.3-1.04,2.32-2.3,2.31-1.25-.01-2.27-1.03-2.27-2.31V4.94c0-.45.36-.76.76-.76s.76.32.76.76v8.43c0,.44.38.76.78.75s.74-.32.74-.75V3.66c0-1.2-.95-2.15-2.13-2.14s-2.09.95-2.09,2.14v11.05c0,1.93,1.54,3.48,3.44,3.49,1.88.01,3.47-1.52,3.47-3.45V4.36c0-.45.34-.78.76-.78s.76.33.76.78v10.35c0,2.66-2,4.77-4.59,5.02Z"/>
    </g>
  </g>
</svg>