<?xml version="1.0" encoding="UTF-8"?>
<svg id="Layer_2" data-name="Layer 2" xmlns="http://www.w3.org/2000/svg" viewBox="0 0 38.67 43.96">
  <defs>
    <style>
      .cls-1 {
        fill: #45151b;
      }
    </style>
  </defs>
  <g id="Mobile">
    <g id="Contact">
      <path class="cls-1" d="M38.1,33.27l-18.02,10.42c-.45.27-1.01.36-1.49.15-5.51-3.46-11.56-6.35-17.04-9.83-.64-.41-1.54-.69-1.55-1.6L.09,10.94l.69-.64C5.86,7.54,10.76,4.43,15.81,1.62c1.13-.63,2.82-1.96,4.08-1.54l17.98,10.38.61,1.38c-.46,6.52.59,13.83,0,20.25-.04.45-.13.81-.39,1.18ZM34.33,11.44L19.28,2.83l-6.01,3.38,14.05,9.34,6.91-3.78.1-.34ZM24.88,17.23L10.83,7.81l-6.84,3.63.21.37,14.99,8.55,5.69-3.12ZM17.91,40.29v-17.5L2.66,13.92v17.5l3.37,2.1,11.89,6.77ZM20.57,40.29l15.26-8.87V13.92l-7.1,4.01-.1,6.78c-.38.82-1.22,1.24-2,.66-.14-.1-.58-.65-.58-.75v-5.06l-5.47,2.99v17.75Z"/>
    </g>
  </g>
</svg>