<?xml version="1.0" encoding="UTF-8"?>
<svg id="Layer_2" data-name="Layer 2" xmlns="http://www.w3.org/2000/svg" viewBox="0 0 336.37 100.91">
  <defs>
    <style>
      .cls-1 {
        fill: #c74e51;
      }
    </style>
  </defs>
  <g id="Desktop">
    <g id="Contact">
      <g>
        <path class="cls-1" d="M50.46,98.91c-26.72,0-48.46-21.74-48.46-48.46S23.74,2,50.46,2h235.46c26.72,0,48.46,21.74,48.46,48.46s-21.74,48.46-48.46,48.46H50.46Z"/>
        <path d="M285.91,4c25.62,0,46.45,20.84,46.45,46.46s-20.84,46.45-46.45,46.45H50.45c-25.62,0-46.45-20.84-46.45-46.46S24.84,4,50.45,4h235.46M285.91,0H50.45C22.59,0,0,22.59,0,50.45h0c0,27.87,22.59,50.46,50.45,50.46h235.46c27.87,0,50.45-22.59,50.45-50.45h0c0-27.87-22.59-50.46-50.45-50.46h0Z"/>
      </g>
      <g>
        <path d="M120.99,68.08c-2.78,0-5.48-.4-8.1-1.21-2.62-.81-4.83-1.98-6.65-3.52l3.79-5.97c.83.83,1.84,1.53,3.05,2.13,1.21.59,2.5,1.05,3.88,1.36,1.37.31,2.72.47,4.05.47,2.04,0,3.7-.36,4.98-1.08,1.27-.72,1.91-1.77,1.91-3.15,0-1.11-.45-2.04-1.35-2.79-.9-.74-2.57-1.46-5.01-2.14l-3.44-.97c-3.79-1.06-6.51-2.49-8.18-4.31-1.67-1.81-2.5-4.01-2.5-6.59,0-1.67.35-3.21,1.05-4.61.7-1.41,1.68-2.62,2.95-3.65,1.26-1.02,2.76-1.82,4.49-2.38,1.73-.56,3.61-.85,5.64-.85,2.74,0,5.3.4,7.66,1.2,2.36.8,4.27,1.89,5.75,3.27l-3.93,5.79c-.72-.7-1.58-1.31-2.6-1.84-1.01-.53-2.11-.94-3.3-1.24s-2.38-.44-3.58-.44c-1.29,0-2.43.17-3.4.52-.98.35-1.74.85-2.27,1.51s-.81,1.44-.81,2.35c0,.7.19,1.3.58,1.79.39.49,1.04.96,1.96,1.39.92.43,2.19.88,3.81,1.35l3.55,1.05c3.73,1.09,6.44,2.48,8.13,4.17,1.69,1.69,2.53,3.88,2.53,6.57,0,2.33-.59,4.39-1.76,6.18-1.18,1.79-2.86,3.18-5.06,4.17-2.2,1-4.8,1.49-7.82,1.49Z"/>
        <path d="M141.52,67.27V28.52h7.86v17.49l-1.64-1.91c1.18-1.52,2.6-2.71,4.25-3.55,1.65-.84,3.44-1.26,5.35-1.26,2.53,0,4.63.5,6.31,1.51,1.68,1,2.93,2.31,3.77,3.93.83,1.61,1.25,3.34,1.25,5.17v17.38h-7.86v-15.15c0-1.69-.5-3.05-1.51-4.1-1-1.05-2.39-1.57-4.14-1.57-1.18-.02-2.21.22-3.08.71-.87.49-1.54,1.2-2,2.13-.47.92-.7,2.01-.7,3.27v14.72h-7.86Z"/>
        <path d="M188.83,68.08c-2.92,0-5.52-.65-7.78-1.96-2.26-1.31-4.03-3.05-5.31-5.23-1.28-2.18-1.92-4.58-1.92-7.2,0-1.92.37-3.74,1.1-5.48.74-1.73,1.77-3.26,3.11-4.6,1.34-1.34,2.92-2.39,4.76-3.16,1.84-.77,3.85-1.16,6.04-1.16,2.92,0,5.51.66,7.76,1.96,2.25,1.31,4.02,3.05,5.3,5.23,1.28,2.18,1.92,4.58,1.92,7.2,0,1.9-.37,3.72-1.1,5.46-.74,1.74-1.77,3.28-3.11,4.61s-2.92,2.39-4.75,3.16c-1.83.77-3.84,1.16-6.03,1.16ZM188.8,61.27c1.4,0,2.65-.31,3.74-.93,1.09-.62,1.96-1.5,2.58-2.64.63-1.14.94-2.48.94-4.02s-.31-2.91-.93-4.05c-.62-1.14-1.48-2.01-2.57-2.62s-2.34-.92-3.74-.92-2.65.31-3.74.92c-1.09.61-1.96,1.48-2.58,2.62-.63,1.14-.94,2.49-.94,4.05s.31,2.91.94,4.04c.63,1.13,1.49,2,2.58,2.62,1.09.62,2.33.93,3.71.93Z"/>
        <path d="M209.22,78.57v-38.48h6.83v3.34c1.04-1.24,2.36-2.24,3.97-3,1.6-.76,3.51-1.14,5.72-1.14,2.62,0,4.95.61,7,1.82,2.05,1.21,3.65,2.9,4.82,5.07,1.17,2.17,1.75,4.67,1.75,7.51,0,2.03-.34,3.91-1.01,5.65-.67,1.74-1.62,3.27-2.84,4.57-1.22,1.31-2.66,2.33-4.33,3.07-1.67.74-3.51,1.1-5.52,1.1-1.78,0-3.38-.3-4.8-.89-1.43-.59-2.68-1.42-3.75-2.48v13.86h-7.83ZM224.29,61.27c1.4,0,2.65-.31,3.74-.93,1.09-.62,1.96-1.49,2.58-2.62.63-1.13.94-2.48.94-4.04s-.31-2.91-.94-4.04c-.63-1.13-1.49-2-2.58-2.62-1.09-.62-2.34-.93-3.74-.93s-2.62.31-3.71.93c-1.09.62-1.96,1.49-2.58,2.62-.63,1.13-.94,2.48-.94,4.04s.31,2.91.93,4.04c.62,1.13,1.48,2,2.57,2.62,1.09.62,2.34.93,3.74.93Z"/>
      </g>
    </g>
  </g>
</svg>