<?xml version="1.0" encoding="UTF-8"?>
<svg id="Layer_2" data-name="Layer 2" xmlns="http://www.w3.org/2000/svg" viewBox="0 0 34.14 30.36">
  <defs>
    <style>
      .cls-1 {
        fill: #45151b;
      }
    </style>
  </defs>
  <g id="Mobile">
    <g id="Homepage">
      <path class="cls-1" d="M31.95,3.59C30.25,1.39,27.72.11,24.94,0c-3.28-.12-5.95,1.48-7.87,4.1C15.15,1.5,12.47-.12,9.2.01,6.41.1,3.89,1.4,2.19,3.59.85,5.31.21,7.34,0,9.46v1.53c.35,3.72,2.28,6.55,4.86,9.21,1.27,1.31,2.57,2.51,3.97,3.71l6.91,5.95c.78.67,1.88.67,2.66,0l6.98-6.01c1.4-1.21,2.72-2.41,3.99-3.75,2.84-2.97,5.03-6.33,4.74-10.61-.15-2.16-.84-4.19-2.16-5.9ZM30.68,15.24c-.81,1.3-1.71,2.4-2.75,3.48-1.25,1.29-2.52,2.47-3.89,3.64l-6.97,6-6.97-6c-1.37-1.18-2.64-2.36-3.89-3.64-1.05-1.1-1.97-2.21-2.76-3.5-1.74-2.82-1.94-6.32-.41-9.26,1.19-2.28,3.41-3.76,5.97-3.94,3.08-.22,5.42,1.52,6.95,4.03.25.41.64.65,1.09.66.47,0,.88-.23,1.14-.66,1.53-2.51,3.87-4.25,6.95-4.03,2.56.18,4.78,1.66,5.97,3.94,1.53,2.94,1.34,6.43-.42,9.28Z"/>
    </g>
  </g>
</svg>